<svg width="67" height="75" viewBox="0 0 67 75" fill="none" xmlns="http://www.w3.org/2000/svg">
<path d="M33.0785 18.5C30.7452 14.6666 24.3785 9.29996 17.5785 18.5C11.9119 19 1.77855 22.9 6.57855 34.5C2.91192 38.1666 -2.02135 46.8 7.57865 52C5.24526 57 3.97849 66.9 17.5785 66.5C19.0785 70.6666 24.2785 77.1 33.0785 69.5" stroke="white" stroke-width="3"/>
<path d="M32.5787 18.0798C34.912 14.2465 41.2787 8.8798 48.0787 18.0798C53.7453 18.5798 63.8787 22.4798 59.0787 34.0798C62.7453 37.7465 67.6786 46.3798 58.0786 51.5798C60.412 56.5798 61.6787 66.4798 48.0787 66.0798C46.5787 70.2465 41.3787 76.6798 32.5787 69.0798" stroke="white" stroke-width="3"/>
<path d="M33.0786 17V70.5" stroke="white" stroke-width="3"/>
<path d="M16.0787 24C15.5787 26.8333 16.1787 32.1 22.5787 30.5C24.5787 29.8333 28.6786 30.1 29.0786 36.5" stroke="white" stroke-width="3" stroke-linecap="round"/>
<path d="M37.7152 36.5C37.2152 33.6667 37.8152 28.4 44.2152 30C46.2152 30.6667 50.3151 30.4 50.7151 24" stroke="white" stroke-width="3" stroke-linecap="round"/>
<path d="M44.5786 45C47.5786 48.1667 51.3786 56.1 42.5786 62.5M16.0786 50.5C16.7453 54.1667 20.3786 60.9 29.5786 58.5M29.5786 41C27.7453 41.3333 24.3786 43.1 25.5786 47.5M37.5786 49.5C39.4119 49.5 42.8786 50.7 42.0786 55.5" stroke="white" stroke-width="3" stroke-linecap="round"/>
<path d="M7.57861 34.022C11.1238 33.7834 17.3278 35.4537 15.1121 40.4646C14.5212 41.4191 12.5418 43.2564 9.35119 42.9701" stroke="white" stroke-width="3" stroke-linecap="round"/>
<path d="M58.5786 34.022C55.0335 33.7834 48.8294 35.4537 51.0452 40.4646C51.636 41.4191 53.6154 43.2564 56.806 42.9701" stroke="white" stroke-width="3" stroke-linecap="round"/>
<path d="M60.5786 5.5L56.0786 11M52.5786 2V9.5M64.5786 14H58.0786" stroke="white" stroke-width="3" stroke-linecap="round"/>
</svg>
