<svg width="335" height="75" viewBox="0 0 335 75" fill="none" xmlns="http://www.w3.org/2000/svg">
<path d="M33.0785 18.5C30.7452 14.6666 24.3785 9.29996 17.5785 18.5C11.9119 19 1.77855 22.9 6.57855 34.5C2.91192 38.1666 -2.02135 46.8 7.57865 52C5.24526 57 3.97849 66.9 17.5785 66.5C19.0785 70.6666 24.2785 77.1 33.0785 69.5" stroke="white" stroke-width="3"/>
<path d="M32.5787 18.0798C34.912 14.2465 41.2787 8.8798 48.0787 18.0798C53.7453 18.5798 63.8787 22.4798 59.0787 34.0798C62.7453 37.7465 67.6786 46.3798 58.0786 51.5798C60.412 56.5798 61.6787 66.4798 48.0787 66.0798C46.5787 70.2465 41.3787 76.6798 32.5787 69.0798" stroke="white" stroke-width="3"/>
<path d="M33.0786 17V70.5" stroke="white" stroke-width="3"/>
<path d="M16.0787 24C15.5787 26.8333 16.1787 32.1 22.5787 30.5C24.5787 29.8333 28.6786 30.1 29.0786 36.5" stroke="white" stroke-width="3" stroke-linecap="round"/>
<path d="M37.7152 36.5C37.2152 33.6667 37.8152 28.4 44.2152 30C46.2152 30.6667 50.3151 30.4 50.7151 24" stroke="white" stroke-width="3" stroke-linecap="round"/>
<path d="M44.5786 45C47.5786 48.1667 51.3786 56.1 42.5786 62.5M16.0786 50.5C16.7453 54.1667 20.3786 60.9 29.5786 58.5M29.5786 41C27.7453 41.3333 24.3786 43.1 25.5786 47.5M37.5786 49.5C39.4119 49.5 42.8786 50.7 42.0786 55.5" stroke="white" stroke-width="3" stroke-linecap="round"/>
<path d="M7.57861 34.022C11.1238 33.7834 17.3278 35.4537 15.1121 40.4646C14.5212 41.4191 12.5418 43.2564 9.35119 42.9701" stroke="white" stroke-width="3" stroke-linecap="round"/>
<path d="M58.5786 34.022C55.0335 33.7834 48.8294 35.4537 51.0452 40.4646C51.636 41.4191 53.6154 43.2564 56.806 42.9701" stroke="white" stroke-width="3" stroke-linecap="round"/>
<path d="M60.5786 5.5L56.0786 11M52.5786 2V9.5M64.5786 14H58.0786" stroke="white" stroke-width="3" stroke-linecap="round"/>
<path d="M91.8068 31.9091L98.3125 53.2159H98.554L105.06 31.9091H112.929L103.114 61H93.7528L83.9375 31.9091H91.8068ZM115.661 61V39.1818H122.607V61H115.661ZM119.141 36.6392C118.166 36.6392 117.328 36.3172 116.627 35.6733C115.926 35.0199 115.576 34.2339 115.576 33.3153C115.576 32.4062 115.926 31.6297 116.627 30.9858C117.328 30.3324 118.166 30.0057 119.141 30.0057C120.126 30.0057 120.964 30.3324 121.655 30.9858C122.356 31.6297 122.707 32.4062 122.707 33.3153C122.707 34.2339 122.356 35.0199 121.655 35.6733C120.964 36.3172 120.126 36.6392 119.141 36.6392ZM147.793 39.1818L140.307 61H132.353L124.881 39.1818H132.196L136.216 54.2102H136.444L140.478 39.1818H147.793ZM155.621 61.3693C154.229 61.3693 152.993 61.1373 151.914 60.6733C150.844 60.1998 149.996 59.4896 149.371 58.5426C148.755 57.5862 148.448 56.3883 148.448 54.9489C148.448 53.7367 148.661 52.714 149.087 51.8807C149.513 51.0473 150.1 50.3703 150.848 49.8494C151.596 49.3286 152.458 48.9356 153.434 48.6705C154.409 48.3958 155.451 48.2112 156.559 48.1165C157.799 48.0028 158.798 47.8845 159.556 47.7614C160.313 47.6288 160.863 47.4441 161.203 47.2074C161.554 46.9612 161.729 46.6155 161.729 46.1705V46.0994C161.729 45.3703 161.478 44.8068 160.976 44.4091C160.474 44.0114 159.797 43.8125 158.945 43.8125C158.026 43.8125 157.288 44.0114 156.729 44.4091C156.17 44.8068 155.815 45.3561 155.664 46.0568L149.257 45.8295C149.447 44.5038 149.934 43.3201 150.72 42.2784C151.516 41.2273 152.605 40.4034 153.988 39.8068C155.38 39.2008 157.051 38.8977 159.002 38.8977C160.394 38.8977 161.677 39.0634 162.851 39.3949C164.025 39.7169 165.048 40.1903 165.919 40.8153C166.791 41.4309 167.463 42.1884 167.936 43.0881C168.419 43.9877 168.661 45.0152 168.661 46.1705V61H162.127V57.9602H161.956C161.568 58.6989 161.071 59.3239 160.465 59.8352C159.868 60.3466 159.163 60.7301 158.348 60.9858C157.543 61.2415 156.634 61.3693 155.621 61.3693ZM157.766 56.8239C158.514 56.8239 159.186 56.6723 159.783 56.3693C160.389 56.0663 160.872 55.6496 161.232 55.1193C161.592 54.5795 161.772 53.9545 161.772 53.2443V51.1705C161.573 51.2746 161.331 51.3693 161.047 51.4545C160.773 51.5398 160.47 51.6203 160.138 51.696C159.807 51.7718 159.466 51.8381 159.115 51.8949C158.765 51.9517 158.429 52.0038 158.107 52.0511C157.453 52.1553 156.895 52.3163 156.431 52.5341C155.976 52.7519 155.626 53.036 155.38 53.3864C155.143 53.7273 155.024 54.1345 155.024 54.608C155.024 55.3277 155.28 55.8769 155.791 56.2557C156.312 56.6345 156.97 56.8239 157.766 56.8239ZM172.508 31.9091H181.215L188.602 49.9205H188.943L196.329 31.9091H205.036V61H198.19V43.1307H197.948L190.96 60.8153H186.585L179.596 43.0312H179.355V61H172.508V31.9091ZM219.221 61.4119C216.939 61.4119 214.969 60.9621 213.312 60.0625C211.664 59.1534 210.395 57.8608 209.505 56.1847C208.624 54.4991 208.184 52.4962 208.184 50.1761C208.184 47.9223 208.629 45.9527 209.519 44.267C210.409 42.572 211.664 41.2557 213.283 40.3182C214.903 39.3712 216.811 38.8977 219.008 38.8977C220.561 38.8977 221.981 39.1392 223.269 39.6222C224.557 40.1051 225.67 40.8201 226.607 41.767C227.545 42.714 228.274 43.8835 228.795 45.2756C229.316 46.6581 229.576 48.2443 229.576 50.0341V51.767H210.613V47.733H223.113C223.103 46.9943 222.928 46.3362 222.587 45.7585C222.246 45.1809 221.778 44.7311 221.181 44.4091C220.594 44.0777 219.917 43.9119 219.15 43.9119C218.373 43.9119 217.677 44.0871 217.062 44.4375C216.446 44.7784 215.959 45.2472 215.599 45.8438C215.239 46.4309 215.049 47.0985 215.031 47.8466V51.9517C215.031 52.8419 215.206 53.6231 215.556 54.2955C215.906 54.9583 216.404 55.4744 217.048 55.8438C217.692 56.2131 218.459 56.3977 219.349 56.3977C219.964 56.3977 220.523 56.3125 221.025 56.142C221.527 55.9716 221.958 55.7206 222.317 55.3892C222.677 55.0578 222.947 54.6506 223.127 54.1676L229.505 54.3523C229.24 55.7822 228.657 57.0275 227.758 58.0881C226.868 59.1392 225.698 59.9583 224.249 60.5455C222.8 61.1231 221.124 61.4119 219.221 61.4119ZM232.724 61V39.1818H239.329V43.1875H239.57C240.025 41.8617 240.792 40.8153 241.871 40.0483C242.951 39.2812 244.239 38.8977 245.735 38.8977C247.25 38.8977 248.547 39.286 249.627 40.0625C250.707 40.839 251.393 41.8807 251.687 43.1875H251.914C252.321 41.8902 253.117 40.8532 254.3 40.0767C255.484 39.2907 256.881 38.8977 258.491 38.8977C260.555 38.8977 262.231 39.5606 263.519 40.8864C264.807 42.2027 265.451 44.0114 265.451 46.3125V61H258.505V47.9034C258.505 46.8144 258.225 45.9858 257.667 45.4176C257.108 44.84 256.384 44.5511 255.493 44.5511C254.537 44.5511 253.784 44.8636 253.235 45.4886C252.695 46.1042 252.425 46.9328 252.425 47.9744V61H245.749V47.8324C245.749 46.8191 245.475 46.0189 244.925 45.4318C244.376 44.8447 243.652 44.5511 242.752 44.5511C242.146 44.5511 241.611 44.6979 241.147 44.9915C240.683 45.2756 240.318 45.6828 240.053 46.2131C239.797 46.7434 239.67 47.3684 239.67 48.0881V61H232.724ZM279.539 61.4119C277.248 61.4119 275.278 60.9432 273.63 60.0057C271.992 59.0587 270.728 57.7424 269.838 56.0568C268.957 54.3617 268.517 52.3968 268.517 50.1619C268.517 47.9176 268.957 45.9527 269.838 44.267C270.728 42.572 271.992 41.2557 273.63 40.3182C275.278 39.3712 277.248 38.8977 279.539 38.8977C281.831 38.8977 283.796 39.3712 285.434 40.3182C287.082 41.2557 288.346 42.572 289.227 44.267C290.117 45.9527 290.562 47.9176 290.562 50.1619C290.562 52.3968 290.117 54.3617 289.227 56.0568C288.346 57.7424 287.082 59.0587 285.434 60.0057C283.796 60.9432 281.831 61.4119 279.539 61.4119ZM279.582 56.1705C280.415 56.1705 281.121 55.9148 281.699 55.4034C282.276 54.892 282.717 54.1818 283.02 53.2727C283.332 52.3636 283.488 51.3125 283.488 50.1193C283.488 48.9072 283.332 47.8466 283.02 46.9375C282.717 46.0284 282.276 45.3182 281.699 44.8068C281.121 44.2955 280.415 44.0398 279.582 44.0398C278.72 44.0398 277.991 44.2955 277.395 44.8068C276.807 45.3182 276.358 46.0284 276.045 46.9375C275.742 47.8466 275.591 48.9072 275.591 50.1193C275.591 51.3125 275.742 52.3636 276.045 53.2727C276.358 54.1818 276.807 54.892 277.395 55.4034C277.991 55.9148 278.72 56.1705 279.582 56.1705ZM293.72 61V39.1818H300.468V43.1591H300.695C301.093 41.7197 301.741 40.6496 302.641 39.9489C303.541 39.2386 304.587 38.8835 305.78 38.8835C306.102 38.8835 306.434 38.9072 306.774 38.9545C307.115 38.9924 307.433 39.054 307.726 39.1392V45.1761C307.395 45.0625 306.959 44.9725 306.419 44.9062C305.889 44.84 305.416 44.8068 304.999 44.8068C304.175 44.8068 303.432 44.9915 302.769 45.3608C302.115 45.7206 301.599 46.2273 301.22 46.8807C300.851 47.5246 300.666 48.2822 300.666 49.1534V61H293.72ZM315.068 69.1818C314.234 69.1818 313.448 69.1155 312.71 68.983C311.971 68.8598 311.337 68.6941 310.806 68.4858L312.34 63.4432C313.022 63.6705 313.638 63.803 314.187 63.8409C314.746 63.8788 315.224 63.7888 315.622 63.571C316.029 63.3627 316.341 62.9886 316.559 62.4489L316.829 61.7955L309.073 39.1818H316.346L320.366 54.75H320.593L324.67 39.1818H331.985L323.761 63.0881C323.363 64.2813 322.8 65.3324 322.07 66.2415C321.351 67.16 320.418 67.8797 319.272 68.4006C318.136 68.9214 316.734 69.1818 315.068 69.1818Z" fill="white"/>
</svg>
